<svg width="105" height="105" viewBox="0 0 105 105" fill="none" xmlns="http://www.w3.org/2000/svg">
<path d="M89.2335 29.7577H74.7632L66.3501 21.3248C66.3403 21.315 66.3304 21.3084 66.3238 21.2986L66.3074 21.2855C65.0442 20.0353 63.3084 19.2642 61.3888 19.2642H43.8965C41.8621 19.2642 40.0509 20.1436 38.7712 21.525L38.7646 21.5053L30.5254 29.7609H15.7598C11.8945 29.7609 8.76416 32.8945 8.76416 36.7598V78.7434C8.76416 82.6087 11.8978 85.7423 15.7598 85.7423H89.2303C93.0956 85.7423 96.2292 82.6087 96.2292 78.7434V36.7598C96.2292 32.8945 93.0956 29.7609 89.2303 29.7609L89.2335 29.7577ZM92.7346 78.7402C92.7346 80.6663 91.1629 82.238 89.2335 82.238H15.7631C13.8337 82.238 12.2653 80.6663 12.2653 78.7402V36.7566C12.2653 34.8272 13.837 33.2588 15.7631 33.2588H31.979L37.2421 27.9858L37.3274 28.2417L41.3437 23.8973C42.0229 23.1623 42.9318 22.7588 43.8998 22.7588H61.3921C62.3174 22.7588 63.1902 23.1164 63.876 23.7956L73.3129 33.2555H89.2335C91.1629 33.2555 92.7346 34.8239 92.7346 36.7533V78.7402Z" fill="#1E1E1E"/>
<path d="M52.5 33.2587C39.9394 33.2587 29.7577 43.4372 29.7577 55.9978C29.7577 68.5584 39.9394 78.7434 52.5 78.7434C65.0607 78.7434 75.2424 68.5584 75.2424 55.9978C75.2424 43.4372 65.0607 33.2587 52.5 33.2587ZM52.5 75.2423C41.8885 75.2423 33.2588 66.6094 33.2588 55.9978C33.2588 45.3862 41.8918 36.7598 52.5 36.7598C63.1083 36.7598 71.7413 45.3895 71.7413 55.9978C71.7413 66.6094 63.1083 75.2423 52.5 75.2423Z" fill="#1E1E1E"/>
<path d="M52.5 40.2544C43.8014 40.2544 36.7566 47.2992 36.7566 55.9945C36.7566 64.6898 43.8047 71.7412 52.5 71.7412C61.1953 71.7412 68.2435 64.6898 68.2435 55.9945C68.2435 47.2992 61.1953 40.2544 52.5 40.2544ZM52.5 68.2434C45.7472 68.2434 40.2544 62.7473 40.2544 55.9945C40.2544 49.2417 45.7472 43.7522 52.5 43.7522C59.2528 43.7522 64.7457 49.2417 64.7457 55.9945C64.7457 62.7473 59.2528 68.2434 52.5 68.2434Z" fill="#1E1E1E"/>
</svg>
