<svg width="45" height="45" viewBox="0 0 45 45" fill="none" xmlns="http://www.w3.org/2000/svg">
<g clip-path="url(#clip0_13_140)">
<path d="M44.951 23.4102C44.6698 20.9688 43.2213 19.083 40.9302 18.718C40.8213 17.7375 40.6645 16.7731 40.4219 15.8569C40.4932 15.8524 40.565 15.8513 40.6363 15.8466C41.2901 15.8044 41.5941 15.3027 41.5661 14.8184C41.9446 14.7826 42.2997 14.527 42.3086 14.0309C42.3213 13.3284 42.3338 12.6257 42.3461 11.9232C42.3529 11.5405 42.0766 11.1861 41.7097 11.0875C40.1997 10.6822 34.721 10.1407 28.3228 9.88467C29.8937 8.67384 29.2698 6.50706 28.1745 5.12937C26.9517 3.59165 24.6915 3.07414 22.8412 2.95176C18.719 2.67924 14.5911 5.51157 16.299 9.83148C8.54734 10.1341 2.16984 11.2358 2.60781 13.8932C2.53297 14.1907 2.69983 14.5428 3.11968 14.5858C3.71062 14.6461 4.3025 14.6979 4.89438 14.7487C4.68987 15.7218 4.5529 16.6994 4.45476 17.6789C1.99686 17.8665 0.215804 19.8968 0.0141169 22.3561C-0.201926 24.9914 2.08582 26.6737 4.50277 26.4981C4.54302 27.0333 4.58632 27.5687 4.6308 28.1031C4.92356 31.6118 4.85673 35.5474 7.02633 38.512C10.512 43.2741 18.9263 41.53 23.8862 41.6945C29.227 41.8722 37.3371 43.6881 39.9228 37.2976C40.9776 34.6901 41.155 31.8039 41.1696 28.9626C41.3673 29.148 41.6422 29.2615 41.9707 29.2153C44.5663 28.8527 45.1963 25.5377 44.951 23.4102ZM1.69727 22.3436C1.91544 20.8075 2.95141 19.576 4.35121 19.01C4.23048 21.0544 4.28273 23.108 4.4124 25.1618C2.80832 24.958 1.42028 24.2939 1.69727 22.3436ZM22.5153 4.88909C23.8598 4.89474 25.3417 5.26846 26.3855 6.14816C27.5177 7.102 27.0101 8.33777 27.413 9.55307C27.4516 9.66957 27.5323 9.77665 27.6335 9.85855C24.4006 9.74088 20.9653 9.69875 17.7073 9.78512C17.708 9.73358 17.7158 9.68369 17.7037 9.6298C16.9683 6.30702 19.5123 4.87638 22.5153 4.88909ZM3.95208 13.4094C5.1582 12.0597 8.77515 11.8681 10.0566 11.7192C13.9378 11.2678 17.8873 11.2826 21.7886 11.328C25.8134 11.3751 29.8375 11.5845 33.8493 11.9001C35.3296 12.0166 36.8075 12.1614 38.2824 12.3322C38.8882 12.4023 39.4921 12.4866 40.0943 12.58C41.3014 12.7674 40.6718 12.6648 40.6518 13.905C40.646 13.9045 40.6422 13.9015 40.6363 13.901C40.308 13.8782 39.979 13.8624 39.6505 13.8426C39.2704 13.4378 38.675 13.4489 38.3137 13.765C33.0793 13.5082 27.8015 13.5654 22.5687 13.38C16.3821 13.1611 10.1319 12.8834 3.95208 13.4094ZM38.559 34.1601C37.4185 41.6183 29.3362 39.8137 23.8864 39.559C19.4333 39.3505 11.5875 41.2102 8.55158 36.9242C6.68368 34.2872 7.11859 30.0381 6.82982 26.9711C6.45093 22.9466 6.13016 18.9041 6.31866 14.8619C11.2641 15.2314 16.2362 15.3342 21.187 15.5246C26.8164 15.7411 32.5714 16.1429 38.2285 15.9614C39.1831 21.8536 39.4549 28.2982 38.559 34.1601ZM41.4934 27.4821C41.3635 27.5089 41.2576 27.5555 41.1684 27.6131C41.1639 27.0316 41.159 26.4529 41.1566 25.8824C41.1489 24.0374 41.1835 21.9765 41.0423 19.9424C42.335 20.6819 43.0714 22.2179 43.2406 23.726C43.3976 25.1284 43.1144 27.1479 41.4934 27.4821Z" fill="#1E1E1E"/>
</g>
<defs>
<clipPath id="clip0_13_140">
<rect width="45" height="45" fill="white"/>
</clipPath>
</defs>
</svg>
